<svg width="60" height="60" viewBox="0 0 60 60" fill="none" xmlns="http://www.w3.org/2000/svg">
<path d="M54.58 19.4825C57.8125 16.25 59.275 10.3175 59.935 5.91499C60.0497 5.11944 59.9774 4.3081 59.7237 3.54541C59.47 2.78271 59.042 2.08966 58.4737 1.52131C57.9053 0.952953 57.2123 0.524945 56.4496 0.271275C55.6869 0.0176041 54.8755 -0.0547407 54.08 0.0599855C49.12 0.887486 42.33 2.33999 39.4175 6.83999C34 -2.59752 27.3475 5.27999 25.44 12.88C19.655 11.2675 17.1125 17.925 15.44 22.88C9.29501 20.805 5.23501 30.725 5.00001 36.25C5.16263 40.2912 6.60639 44.176 9.1225 47.3425L0.727506 55.7325C0.272111 56.204 0.0201248 56.8355 0.0258208 57.491C0.0315169 58.1465 0.294439 58.7735 0.757959 59.237C1.22148 59.7006 1.84851 59.9635 2.504 59.9692C3.15949 59.9749 3.791 59.7229 4.26251 59.2675L12.6525 50.8775C15.8207 53.3941 19.7072 54.8379 23.75 55C29.17 54.8025 39.3775 50.59 37.1775 44.5475C41.99 42.9125 48.95 40.2025 47.1775 34.5475C54.8 32.5625 62.705 26.0075 53.1475 20.575C53.6663 20.2684 54.1471 19.9017 54.58 19.4825V19.4825ZM44.045 8.94749C47.2354 6.61918 51.0525 5.3047 55 5.17499C53.385 14.5675 51.7775 18.3375 42.5725 17.425C42.3375 14.2775 42.6275 10.3675 44.045 8.94749ZM33.73 7.49999C36.5525 10.5375 39.0725 17.1225 36.1175 20.36L32.3075 24.1575C31.9092 21.927 31.1286 19.7821 30 17.8175C29.9095 14.0329 31.2403 10.3518 33.73 7.49999V7.49999ZM23.73 17.5C26.55 20.5375 29.07 27.12 26.115 30.36L22.3075 34.1575C21.9088 31.9271 21.1282 29.7823 20 27.8175C19.9082 24.0327 21.2392 20.3511 23.73 17.5V17.5ZM13.73 27.5C16.5475 30.535 19.07 37.12 16.1175 40.3575L12.7 43.7625C10.8716 41.3875 9.96786 38.4294 10.1569 35.4381C10.3459 32.4468 11.6147 29.6259 13.7275 27.5H13.73ZM23.75 50C21.0331 49.8647 18.418 48.9239 16.2375 47.2975L19.65 43.885C22.9 40.925 29.4725 43.465 32.515 46.23C30.0642 48.3798 26.9962 49.6994 23.75 50V50ZM33.75 40C33.415 40 32.3675 39.9725 32.1725 40C30.2108 38.8733 28.0694 38.0935 25.8425 37.695L29.6525 33.8875C32.8875 30.9275 39.4725 33.47 42.515 36.2325C40.0639 38.3814 36.9959 39.7001 33.75 40ZM43.75 30C43.415 30 42.3675 29.975 42.175 30C40.2125 28.8725 38.0703 28.0918 35.8425 27.6925L39.6525 23.885C42.8875 20.9275 49.4725 23.4675 52.515 26.23C50.0642 28.3798 46.9962 29.6994 43.75 30V30Z" fill="#68E299"/>
</svg>
